<svg id="Layer_1" data-name="Layer 1" xmlns="http://www.w3.org/2000/svg" viewBox="0 0 1125 1500"><defs><style>.cls-1{fill:#232d3e;}.cls-2{fill:#fff;}.cls-3{fill:#12554c;}.cls-4{fill:#9c2624;}.cls-5{fill:#9e222e;}</style></defs><title>winterscene2-big_1</title><rect class="cls-1" width="1125" height="1500"/><circle class="cls-2" cx="225" cy="243.75" r="112.5"/><polygon class="cls-3" points="787.5 131.25 1012.5 356.25 900 356.25 1012.5 468.75 900 468.75 1012.5 581.25 900 581.25 1012.5 693.75 900 693.75 1012.5 806.25 900 806.25 1012.5 918.75 900 918.75 787.5 918.75 787.5 131.25"/><polygon class="cls-3" points="562.5 243.75 787.5 468.75 675 468.75 787.5 581.25 675 581.25 787.5 693.75 675 693.75 787.5 806.25 675 806.25 787.5 918.75 675 918.75 562.5 1031.25 562.5 243.75"/><polygon class="cls-4" points="787.5 1031.25 675 918.75 562.5 1031.25 562.5 1143.75 787.5 1143.75 1012.5 1087.5 1012.5 1031.25 787.5 1031.25"/><path class="cls-3" d="M112.5,1143.75v-675l225,225H225l112.5,112.5H225l112.5,112.5H225l112.5,112.5H225l112.5,112.5H225l112.5,112.5H225l112.5,112.5H225a112.5,112.5,0,0,1-112.5-112.5Z"/><polygon class="cls-3" points="337.5 1256.25 337.5 356.25 562.5 581.25 450 581.25 562.5 693.75 450 693.75 562.5 806.25 450 806.25 562.5 918.75 450 918.75 562.5 1031.25 450 1031.25 562.5 1143.75 450 1143.75 562.5 1256.25 450 1256.25 337.5 1256.25"/><polygon class="cls-2" points="225 1143.75 337.5 1256.25 337.5 1143.75 225 1143.75"/><path class="cls-2" d="M337.5,1368.75h225a266.47,266.47,0,0,0,119.14-28.12h0a266.47,266.47,0,0,1,119.14-28.12H900A112.5,112.5,0,0,0,1012.5,1200V1087.5H800.78a266.47,266.47,0,0,0-119.14,28.12h0a266.47,266.47,0,0,1-119.14,28.12H450l112.5,112.5H225Z"/><rect class="cls-5" x="900" y="918.75" width="56.25" height="56.25"/><path class="cls-2" d="M900,806.25a112.5,112.5,0,0,0-112.5-112.5H450a112.5,112.5,0,0,0,112.5,112.5H843.75A56.24,56.24,0,0,0,900,862.5v56.25h56.25V862.5A56.24,56.24,0,0,0,900,806.25"/><polygon class="cls-2" points="787.5 1031.25 675 918.75 900 918.75 1012.5 1031.25 1012.5 1031.25 787.5 1031.25 787.5 1031.25"/></svg>