<svg xmlns="http://www.w3.org/2000/svg" viewBox="0 0 32 32"><defs><style>.cls-1{fill:#fff;}.cls-2{fill:none;stroke:#fff;stroke-miterlimit:10;stroke-width:1.5px;}</style></defs><title>lightdescription32</title><g id="Quadrant_Type" data-name="Quadrant Type"><path class="cls-1" d="M16.86,14a2.73,2.73,0,0,0,1.51-2.31A2.22,2.22,0,0,0,16,9.32a2.3,2.3,0,0,0-2.38,2.29H11.69a3.94,3.94,0,0,1,4.27-4,4,4,0,0,1,4.34,4.18,4,4,0,0,1-2,3.56c-1.13.8-2,1.39-2,3v1.46H14.43V18.24A4.7,4.7,0,0,1,16.86,14Zm-2.71,9A1.42,1.42,0,0,1,17,23a1.42,1.42,0,1,1-2.83,0Z"/><circle class="cls-2" cx="16" cy="16" r="14.75"/></g></svg>