<svg id="Quadrants" xmlns="http://www.w3.org/2000/svg" viewBox="0 0 32 32"><defs><style>.cls-1{fill:#021332;}.cls-2{fill:none;stroke:#021332;stroke-miterlimit:10;stroke-width:1.5px;}</style></defs><title>linkedin32</title><path class="cls-1" d="M8.8,8.63A1.37,1.37,0,1,1,10.18,10,1.36,1.36,0,0,1,8.8,8.63Zm2.29,13.8H9.22V11.83h1.87Z"/><path class="cls-1" d="M23.39,16.69v5.75H21.52V17.33c0-1.89-.32-4-2.42-4a2.85,2.85,0,0,0-2.86,3.05v6H14.38V11.83h1.23L16,13h.25a4,4,0,0,1,3.12-1.31C22.05,11.73,23.39,13.74,23.39,16.69Z"/><rect class="cls-2" x="2.75" y="2.75" width="26.5" height="26.5" rx="4.42" ry="4.42"/></svg>